<!-- Generator: Adobe Illustrator 23.0.1, SVG Export Plug-In  -->
<svg version="1.1" xmlns="http://www.w3.org/2000/svg" xmlns:xlink="http://www.w3.org/1999/xlink" x="0px" y="0px"
	 width="589.84px" height="574.21px" viewBox="0 0 589.84 574.21" style="enable-background:new 0 0 589.84 574.21;"
	 xml:space="preserve">
<style type="text/css">
	.st0{fill:#FFFEFB;}
	.st1{fill:#191919;}
	.st2{fill:#EBE3D4;}
	.st3{fill:#34495E;}
	.st4{fill:#96E6EA;}
	.st5{clip-path:url(#SVGID_2_);}
	.st6{fill:#80B9BF;}
	.st7{fill:#AAF6FF;}
	.st8{fill:#332C29;}
	.st9{fill:#222D28;}
	.st10{fill:#5D6D7E;}
	.st11{fill:#43494F;}
	.st12{fill:#646E77;}
	.st13{fill:#85929E;}
	.st14{clip-path:url(#SVGID_4_);}
	.st15{fill:#212528;}
	.st16{fill:#E67E22;}
	.st17{fill:#FFFFFF;}
	.st18{fill:#942B00;}
	.st19{fill:#2C3E50;}
	.st20{clip-path:url(#SVGID_6_);fill:#2C3E50;}
	.st21{fill:#393939;}
	.st22{fill:#E0E0E0;}
	.st23{clip-path:url(#SVGID_8_);}
	.st24{clip-path:url(#SVGID_10_);}
	.st25{fill:#E6E7E8;}
	.st26{fill:#252525;}
	.st27{clip-path:url(#SVGID_12_);}
	.st28{clip-path:url(#SVGID_14_);}
	.st29{clip-path:url(#SVGID_16_);fill:#2C3E50;}
	.st30{clip-path:url(#SVGID_18_);}
	.st31{clip-path:url(#SVGID_20_);}
</style>
<defs>
</defs>
<g>
	<g>
		<rect x="46.06" y="427.68" class="st0" width="72.33" height="23.64"/>
		<rect x="46.06" y="486.1" class="st0" width="72.33" height="23.64"/>
		<rect x="46.06" y="456.89" class="st0" width="72.33" height="23.64"/>
		<rect x="143.72" y="310.84" class="st0" width="16.66" height="11.82"/>
		<rect x="143.72" y="340.05" class="st0" width="16.66" height="11.82"/>
		<rect x="143.72" y="369.26" class="st0" width="16.66" height="11.82"/>
		<rect x="143.72" y="281.63" class="st0" width="16.66" height="11.82"/>
		<rect x="46.06" y="281.63" class="st0" width="72.33" height="23.64"/>
		<rect x="46.06" y="310.84" class="st0" width="72.33" height="23.64"/>
		<rect x="46.06" y="369.26" class="st0" width="72.33" height="23.64"/>
		<rect x="46.06" y="340.05" class="st0" width="72.33" height="23.64"/>
		<rect x="46.06" y="398.47" class="st0" width="72.33" height="23.64"/>
		<rect x="167.13" y="427.68" class="st0" width="33.33" height="23.64"/>
		<rect x="167.13" y="456.89" class="st0" width="33.33" height="23.64"/>
		<rect x="167.13" y="398.47" class="st0" width="33.33" height="23.64"/>
		<rect x="167.13" y="486.1" class="st0" width="33.33" height="23.64"/>
		<rect x="167.13" y="281.63" class="st0" width="33.33" height="23.64"/>
		<rect x="143.72" y="398.47" class="st0" width="16.66" height="11.82"/>
		<rect x="167.13" y="369.26" class="st0" width="33.33" height="23.64"/>
		<rect x="143.72" y="456.89" class="st0" width="16.66" height="11.82"/>
		<rect x="143.72" y="427.68" class="st0" width="16.66" height="11.82"/>
		<rect x="167.13" y="310.84" class="st0" width="33.33" height="23.64"/>
		<rect x="143.72" y="486.1" class="st0" width="16.66" height="11.82"/>
		<rect x="167.13" y="340.05" class="st0" width="33.33" height="23.64"/>
		<path class="st1" d="M121.49,242.57v6.84h3.88v18.88h-0.02v-2.54H27.85v6.84h1.28v9.04H0v23.64h29.13v5.57H0v23.64h29.13v5.57H0
			v23.64h29.13v5.57H0v23.64h29.13v5.57H0v23.64h29.13v5.57H0v23.64h29.13v5.57H0v23.64h29.13v5.57H0v23.64h29.13v37.57h183.7
			V269.74v-1.45v-18.88h2.8v-6.84H121.49z M118.39,310.84v23.64H46.06v-23.64H118.39z M46.06,305.27v-23.64h72.33v23.64H46.06z
			 M118.39,340.05v23.64H46.06v-23.64H118.39z M118.39,369.26v23.64H46.06v-23.64H118.39z M118.39,398.47v23.64H46.06v-23.64H118.39
			z M118.39,427.68v23.64H46.06v-23.64H118.39z M118.39,456.89v23.64H46.06v-23.64H118.39z M118.39,486.1v23.64H46.06V486.1H118.39z
			 M160.38,310.84v11.82h-16.66v-11.82H160.38z M143.72,293.45v-11.82h16.66v11.82H143.72z M160.38,340.05v11.82h-16.66v-11.82
			H160.38z M160.38,369.26v11.82h-16.66v-11.82H160.38z M160.38,398.47v11.82h-16.66v-11.82H160.38z M160.38,427.68v11.82h-16.66
			v-11.82H160.38z M160.38,456.89v11.82h-16.66v-11.82H160.38z M160.38,486.1v11.82h-16.66V486.1H160.38z M200.46,340.05v23.64
			h-33.33v-23.64H200.46z M167.13,334.48v-23.64h33.33v23.64H167.13z M200.46,369.26v23.64h-33.33v-23.64H200.46z M200.46,398.47
			v23.64h-33.33v-23.64H200.46z M200.46,427.68v23.64h-33.33v-23.64H200.46z M200.46,456.89v23.64h-33.33v-23.64H200.46z
			 M200.46,486.1v23.64h-33.33V486.1H200.46z M200.46,305.27h-33.33v-23.64h33.33V305.27z"/>
	</g>
</g>
<g>
	<g>
		<rect x="358.35" y="270.9" class="st0" width="35.49" height="28.88"/>
		<rect x="358.35" y="449.32" class="st0" width="35.49" height="28.88"/>
		<rect x="358.35" y="306.59" class="st0" width="35.49" height="28.88"/>
		<rect x="358.35" y="413.63" class="st0" width="35.49" height="28.88"/>
		<rect x="358.35" y="342.27" class="st0" width="35.49" height="28.88"/>
		<rect x="310.4" y="449.32" class="st0" width="35.49" height="28.88"/>
		<rect x="358.35" y="377.95" class="st0" width="35.49" height="28.88"/>
		<rect x="358.35" y="235.22" class="st0" width="35.49" height="28.88"/>
		<rect x="310.4" y="235.22" class="st0" width="35.49" height="28.88"/>
		<rect x="310.4" y="413.63" class="st0" width="35.49" height="28.88"/>
		<rect x="310.4" y="270.9" class="st0" width="35.49" height="28.88"/>
		<rect x="358.35" y="199.54" class="st0" width="35.49" height="28.88"/>
		<rect x="310.4" y="199.54" class="st0" width="35.49" height="28.88"/>
		<rect x="310.4" y="377.95" class="st0" width="35.49" height="28.88"/>
		<rect x="310.4" y="306.59" class="st0" width="35.49" height="28.88"/>
		<rect x="310.4" y="342.27" class="st0" width="35.49" height="28.88"/>
		<rect x="260.86" y="377.95" class="st0" width="35.49" height="28.88"/>
		<rect x="212.91" y="235.22" class="st0" width="35.49" height="28.88"/>
		<rect x="212.91" y="306.59" class="st0" width="35.49" height="28.88"/>
		<rect x="212.91" y="270.9" class="st0" width="35.49" height="28.88"/>
		<rect x="212.91" y="342.27" class="st0" width="35.49" height="28.88"/>
		<rect x="212.91" y="449.32" class="st0" width="35.49" height="28.88"/>
		<rect x="212.91" y="377.95" class="st0" width="35.49" height="28.88"/>
		<rect x="212.91" y="413.63" class="st0" width="35.49" height="28.88"/>
		<rect x="260.86" y="199.54" class="st0" width="35.49" height="28.88"/>
		<rect x="260.86" y="235.22" class="st0" width="35.49" height="28.88"/>
		<rect x="260.86" y="306.59" class="st0" width="35.49" height="28.88"/>
		<rect x="212.91" y="199.54" class="st0" width="35.49" height="28.88"/>
		<rect x="260.86" y="270.9" class="st0" width="35.49" height="28.88"/>
		<rect x="260.86" y="413.63" class="st0" width="35.49" height="28.88"/>
		<rect x="260.86" y="449.32" class="st0" width="35.49" height="28.88"/>
		<rect x="260.86" y="342.27" class="st0" width="35.49" height="28.88"/>
		<path class="st1" d="M403.93,181.54h-56.6v-22.93h-86v22.93h-56.57h-5.96v365.77h209.14V181.54H403.93z M358.35,199.54h35.49
			v28.88h-35.49V199.54z M345.88,235.22v28.88H310.4v-28.88H345.88z M310.4,228.42v-28.88h35.49v28.88H310.4z M345.88,270.9v28.88
			H310.4V270.9H345.88z M345.88,306.59v28.88H310.4v-28.88H345.88z M345.88,342.27v28.88H310.4v-28.88H345.88z M345.88,377.95v28.88
			H310.4v-28.88H345.88z M345.88,413.63v28.88H310.4v-28.88H345.88z M345.88,449.32v28.88H310.4v-28.88H345.88z M358.35,235.22
			h35.49v28.88h-35.49V235.22z M358.35,270.9h35.49v28.88h-35.49V270.9z M358.35,306.59h35.49v28.88h-35.49V306.59z M358.35,342.27
			h35.49v28.88h-35.49V342.27z M358.35,377.95h35.49v28.88h-35.49V377.95z M358.35,413.63h35.49v28.88h-35.49V413.63z
			 M358.35,449.32h35.49v28.88h-35.49V449.32z M260.86,199.54h35.49v28.88h-35.49V199.54z M260.86,235.22h35.49v28.88h-35.49V235.22
			z M260.86,270.9h35.49v28.88h-35.49V270.9z M260.86,306.59h35.49v28.88h-35.49V306.59z M260.86,342.27h35.49v28.88h-35.49V342.27z
			 M260.86,377.95h35.49v28.88h-35.49V377.95z M260.86,413.63h35.49v28.88h-35.49V413.63z M260.86,449.32h35.49v28.88h-35.49V449.32
			z M212.91,199.54h35.49v28.88h-35.49V199.54z M212.91,235.22h35.49v28.88h-35.49V235.22z M212.91,270.9h35.49v28.88h-35.49V270.9z
			 M212.91,306.59h35.49v28.88h-35.49V306.59z M212.91,342.27h35.49v28.88h-35.49V342.27z M212.91,377.95h35.49v28.88h-35.49V377.95
			z M212.91,413.63h35.49v28.88h-35.49V413.63z M212.91,449.32h35.49v28.88h-35.49V449.32z"/>
	</g>
</g>
<g>
	<g>
		<rect x="434" y="298.65" class="st0" width="32.45" height="32.45"/>
		<rect x="434" y="174.93" class="st0" width="32.45" height="32.45"/>
		<rect x="476.27" y="298.65" class="st0" width="32.45" height="32.45"/>
		<rect x="476.27" y="216.92" class="st0" width="32.45" height="32.45"/>
		<rect x="476.27" y="256.66" class="st0" width="32.45" height="32.45"/>
		<rect x="434" y="216.92" class="st0" width="32.45" height="32.45"/>
		<rect x="476.27" y="174.93" class="st0" width="32.45" height="32.45"/>
		<rect x="434" y="256.66" class="st0" width="32.45" height="32.45"/>
		<rect x="498.22" y="478.99" class="st0" width="34.12" height="34.13"/>
		<rect x="498.22" y="437.18" class="st0" width="34.12" height="34.13"/>
		<rect x="498.22" y="393.02" class="st0" width="34.12" height="34.13"/>
		<rect x="453.75" y="393.02" class="st0" width="34.13" height="34.13"/>
		<rect x="409.3" y="478.99" class="st0" width="34.13" height="34.13"/>
		<rect x="453.75" y="437.18" class="st0" width="34.13" height="34.13"/>
		<rect x="453.75" y="478.99" class="st0" width="34.13" height="34.13"/>
		<rect x="409.3" y="393.02" class="st0" width="34.13" height="34.13"/>
		<rect x="409.3" y="437.18" class="st0" width="34.13" height="34.13"/>
		<polygon class="st0" points="498.22,349.32 498.22,383.45 522.75,383.45 532.34,383.45 532.34,349.32 		"/>
		<polygon class="st0" points="443.42,349.32 409.3,349.32 409.3,383.45 424.38,383.45 443.42,383.45 		"/>
		<rect x="453.75" y="349.32" class="st0" width="34.13" height="34.13"/>
		<path class="st1" d="M557.71,329.29h-0.04V168.58h3.19v-10h-32.13v-41.32h3.15v-10h-46.1V86.6h-13.24V0h-2.1v86.6H457.2v20.66
			h-45.27v10h2.32v41.32h-31.97v10h3.03v160.71h-31.76v10h2.69V542h230.49V339.28h3.1v-10H557.71z M476.27,289.11v-32.45h32.45
			v32.45H476.27z M508.72,298.65v32.45h-32.45v-32.45H508.72z M476.27,249.37v-32.45h32.45v32.45H476.27z M476.27,207.38v-32.45
			h32.45v32.45H476.27z M434,249.37v-32.45h32.45v32.45H434z M466.46,256.66v32.45H434v-32.45H466.46z M434,207.38v-32.45h32.45
			v32.45H434z M434,298.65h32.45v32.45H434V298.65z M498.22,471.31v-34.13h34.12v34.13H498.22z M532.34,478.99v34.13h-34.12v-34.13
			H532.34z M498.22,427.16v-34.13h34.12v34.13H498.22z M487.88,383.45h-34.13v-34.13h34.13V383.45z M409.3,427.16v-34.13h34.13
			v34.13H409.3z M443.42,437.18v34.13H409.3v-34.13H443.42z M424.38,383.45H409.3v-34.13h34.13v34.13H424.38z M453.75,478.99h34.13
			v34.13h-34.13V478.99z M453.75,471.31v-34.13h34.13v34.13H453.75z M453.75,427.16v-34.13h34.13v34.13H453.75z M409.3,478.99h34.13
			v34.13H409.3V478.99z M532.34,383.45h-9.59h-24.53v-34.13h34.12V383.45z"/>
	</g>
</g>
<g>
	<path class="st2" d="M424.94,545.24H414.9c-0.86,0-1.57-0.71-1.57-1.57v-1.19c0-0.86,0.71-1.57,1.57-1.57h10.04
		c0.86,0,1.57,0.71,1.57,1.57v1.18C426.51,544.54,425.81,545.24,424.94,545.24z"/>
	<path class="st3" d="M159.18,542.79c0,0,7.46,5.33,24.41,4.82c16.95-0.51,51.94,0.47,51.94,0.47s112.28-0.36,116.95-0.29
		c4.67,0.07,10.64,0.5,11.08,1.27c0.44,0.77,2.4-0.99,2.99-1.07c0.59-0.08,44.95-4.9,49.67-4.51c4.72,0.39,9.47-1.42,10.16-10.92
		c0.69-9.5,1.84-12.55,0.19-14.94c-1.65-2.39-2.89-4-2.94-5.71c-0.05-1.7,0.14-15.16-1.38-17.97c-1.53-2.81-3.29-2.34-3.29-2.34
		s-21.97-13.66-22.76-17.79c0,0,5.13-1.56,6.76-3.51c1.63-1.95,2.89-2.2,0.81-2.84c-2.08-0.64-10.08-1.06-13.03-1.08
		c-2.95-0.02-3.42-1.68-7.28-2.1c-3.86-0.42-54.86-5.04-72.15-3.34c-17.28,1.71-26.67,2.8-32.99,4.88
		c-6.32,2.08-44.23,22.34-48.14,23.11c-3.91,0.77-12.3,0.84-12.3,0.84s-39.04,10.79-45.06,14.2c-6.02,3.41-6.02,2.15-6.79,3.5
		c-0.78,1.35-2.66,7.38-3.76,8.02c-1.11,0.63-3.32,0.52-3.87,2.84c-0.55,2.32-2.1,7.07-1.33,10.28c0.77,3.21,4.31,7.41,3.87,9.51
		C160.47,540.21,157.77,541.38,159.18,542.79z"/>
	<g>
		<g>
			<path class="st4" d="M235.62,495.9c0,0,32.02-20.74,48.65-24.08c16.63-3.34,30.89-3.22,45.07-3.16
				c14.18,0.06,45.6,0.23,54.1,7.77c8.5,7.54-9.91,12.13-22.51,13.57C348.33,491.43,225.9,501.87,235.62,495.9z"/>
			<path d="M245.98,498.04c-10.75,0-11.07-0.91-11.21-1.34c-0.13-0.37,0.1-0.74,0.67-1.09c0.47-0.3,32.3-20.82,48.76-24.13
				c16.36-3.29,30.6-3.23,44.36-3.17l0.78,0c13.67,0.06,45.69,0.2,54.32,7.86c1.92,1.7,2.63,3.38,2.12,4.99
				c-1.53,4.84-14.32,7.96-24.81,9.15c-5.7,0.65-36.2,3.37-66.89,5.45C268.73,497.5,254.26,498.04,245.98,498.04z M322.98,468.97
				c-12.02,0-24.54,0.34-38.64,3.17c-16.38,3.29-48.21,23.83-48.54,24.04l-0.01,0c-0.36,0.22-0.39,0.34-0.39,0.34
				c0.39,0.73,6.91,2.12,58.91-1.42c30.58-2.08,60.92-4.79,66.58-5.43c11.1-1.27,22.91-4.44,24.25-8.69
				c0.42-1.34-0.22-2.79-1.93-4.3c-8.44-7.49-40.28-7.63-53.88-7.69l-0.78,0C326.71,468.98,324.85,468.97,322.98,468.97z"/>
		</g>
		<g>
			<defs>
				<path id="SVGID_1_" d="M235.62,495.9c0,0,32.02-20.74,48.65-24.08c16.63-3.34,30.89-3.22,45.07-3.16
					c14.18,0.06,45.6,0.23,54.1,7.77c8.5,7.54-9.91,12.13-22.51,13.57C348.33,491.43,225.9,501.87,235.62,495.9z"/>
			</defs>
			<clipPath id="SVGID_2_">
				<use xlink:href="#SVGID_1_"  style="overflow:visible;"/>
			</clipPath>
			<g class="st5">
				
					<rect x="206.96" y="470.26" transform="matrix(0.7002 -0.7139 0.7139 0.7002 -259.1487 333.632)" class="st6" width="121.49" height="10.28"/>
			</g>
		</g>
		<path class="st7" d="M230.16,488.93c0,0,2,1.43,3.27,0.93c1.27-0.5,44.72-21.72,47.87-22.28l-3-1.76
			C278.3,465.82,241.09,479.98,230.16,488.93z"/>
		<path class="st7" d="M418.94,491.6c0,0-17.2-19.91-17.66-19.98c-0.47-0.07-5.14,0.27-5.09,2.19
			C396.27,477.49,414.35,490.97,418.94,491.6z"/>
		<g>
			<path d="M245.98,498.04c-10.75,0-11.07-0.91-11.21-1.34c-0.13-0.37,0.1-0.74,0.67-1.09c0.47-0.3,32.3-20.82,48.76-24.13
				c16.36-3.29,30.6-3.23,44.36-3.17l0.78,0c13.67,0.06,45.69,0.2,54.32,7.86c1.92,1.7,2.63,3.38,2.12,4.99
				c-1.53,4.84-14.32,7.96-24.81,9.15c-5.7,0.65-36.2,3.37-66.89,5.45C268.73,497.5,254.26,498.04,245.98,498.04z M322.98,468.97
				c-12.02,0-24.54,0.34-38.64,3.17c-16.38,3.29-48.21,23.83-48.54,24.04l-0.01,0c-0.36,0.22-0.39,0.34-0.39,0.34
				c0.39,0.73,6.91,2.12,58.91-1.42c30.58-2.08,60.92-4.79,66.58-5.43c11.1-1.27,22.91-4.44,24.25-8.69
				c0.42-1.34-0.22-2.79-1.93-4.3c-8.44-7.49-40.28-7.63-53.88-7.69l-0.78,0C326.71,468.98,324.85,468.97,322.98,468.97z"/>
		</g>
	</g>
	<g>
		<path class="st8" d="M167.82,507.55l-0.16-0.64c0.5-0.13,49.81-12.55,58.18-14.04c4.29-0.77,4.45-1.47,4.46-1.55
			c0.01-0.26-0.77-0.69-1.49-0.9l0.19-0.64c0.34,0.1,2.02,0.64,1.97,1.57c-0.03,0.6-0.63,1.39-5,2.17
			C217.61,495,168.32,507.42,167.82,507.55z"/>
	</g>
	<g>
		<path class="st9" d="M217.86,489.77c0,0,8.89-1.98,12.3-0.84c3.41,1.14,2.6,0.56,3.27,0.93
			C234.12,490.23,221.71,493.66,217.86,489.77z"/>
		<path class="st9" d="M233.41,489.73l-3.06-1.02c-0.14-0.05-0.21-0.2-0.17-0.33l0.16-0.46c0.05-0.14,0.2-0.21,0.34-0.17l3.06,1.02
			c0.14,0.05,0.21,0.2,0.17,0.34l-0.16,0.46C233.7,489.7,233.54,489.77,233.41,489.73z"/>
		<path class="st9" d="M230.21,488.93h-0.32c-0.21,0-0.37-0.17-0.37-0.37v0c0-0.21,0.17-0.37,0.37-0.37h0.32
			c0.21,0,0.37,0.17,0.37,0.37l0,0C230.58,488.76,230.41,488.93,230.21,488.93z"/>
		<path class="st9" d="M215.14,494.65c0,0.36-0.57,0.65-1.27,0.65c-0.7,0-1.27-0.29-1.27-0.65c0-0.36,0.57-0.65,1.27-0.65
			C214.57,494,215.14,494.3,215.14,494.65z"/>
		<path class="st9" d="M214.14,494.52L214.14,494.52c-0.25,0-0.45-0.2-0.45-0.45v-0.25c0-0.25,0.2-0.45,0.45-0.45l0,0
			c0.25,0,0.45,0.2,0.45,0.45v0.25C214.59,494.31,214.39,494.52,214.14,494.52z"/>
		<path d="M240.83,492.64l-2.05,5.09c0,0-3.79-0.52-3.68-1.13C235.21,495.99,240.83,492.64,240.83,492.64z"/>
	</g>
	<g>
		<polygon points="260.96,497.73 256.86,497.73 260.84,481.42 265.62,478.6 		"/>
		<g>
			<path d="M324.79,493.17l-10.9,0.85c6.16-8.64,5.4-24.98,5.39-25.11l10.63-0.24C329.99,469.39,330.89,483.68,324.79,493.17z"/>
		</g>
		<g>
			<path d="M368.83,489.28l-1.88-0.65c1.62-4.64,2.26-17.21,2.27-17.33l1.99,0.1C371.18,471.92,370.55,484.37,368.83,489.28z"/>
		</g>
	</g>
	<path class="st10" d="M412.56,501.96c-2.64-2.13-16.4-6.69-26.6-8.1c-1.2-0.17-1.3-1.86-0.14-2.17c6.67-1.82,17.06-4.35,21.81-4.77
		c3.97-0.35-1.7-2.51-4.71-5.3c-3.61-3.35-10.31-10.27-10.19-10.32c-11.75-7.8-56.16-8.99-84.83-7.91
		c-28.67,1.07-58.49,19.24-68.15,24.53c-9.66,5.29-34.04,3.91-55.12,15.6c-0.38,0.04-3.07,2.26,7.89-1.18
		c26.64-8.38,34.4-6.94,46.98-12.72c30.85-14.18,61.24-19.48,79.77-20.7c69-4.53,82.72,14.81,80.57,17.03
		c-2.09,2.17-33.05,3.8-46.69,10.37c-0.29,0.14-0.21,0.57,0.11,0.59C360.46,497.35,399.56,499.87,412.56,501.96z"/>
	<path class="st10" d="M388.28,515.17c-3.21,0.03-6.7,0.31-10.5,0.9c-6.32,0.98-10.52,4.12-13.05,5.88
		c-0.11-5.63-13.66-9.15-53.6-8.92c-39.94,0.23-79.42-0.25-77.73,11.63c-1.71-2.01-5.86-3.33-10.43-4.18
		c7.98,6.5,11.21,17.81,10.12,27.69c30.28-1.05,121.66-0.57,129.93,0C362.28,535,368.99,516.29,388.28,515.17z"/>
	<g>
		<path d="M267.33,543.53c-11.83,0-22.27-0.23-24.18-0.99c-4.9-1.96-6.73-26.06-6.99-34.35c-0.27-8.72,2.5-10.84,2.62-10.92
			l0.39,0.54l-0.19-0.27l0.2,0.27c-0.03,0.02-2.6,2.07-2.35,10.37c0.31,10.28,2.33,32.06,6.57,33.75
			c4.39,1.75,58.17,0.53,62.01,0.44c0.79-1.84,6.92-16.27,7.15-22.19c0.25-6.37,3.1-26.14,5.28-28.23l0.46,0.48
			c-1.88,1.81-4.81,21.06-5.07,27.78c-0.25,6.42-7,21.96-7.29,22.62l-0.08,0.19l-0.21,0C304.24,543.06,284.36,543.53,267.33,543.53z
			"/>
	</g>
	<g>
		<path d="M305.63,543.02l-0.01-0.66c0.45,0,45.42-0.34,49.69-1.27c3.95-0.86,7.4-7.23,8.64-12.79c0.79-3.51,7.08-11.04,12.64-17.68
			c2.81-3.36,5.23-6.26,6.45-8.06c2.74-4.06,1.69-6.93,0.76-9.47c-0.26-0.71-0.5-1.37-0.67-2.05c-0.79-3.23,1.9-9.8,2.02-10.08
			l0.61,0.25c-0.03,0.07-2.73,6.65-1.99,9.67c0.16,0.64,0.4,1.29,0.65,1.98c0.98,2.68,2.1,5.72-0.83,10.07
			c-1.23,1.83-3.67,4.74-6.49,8.12c-5.23,6.26-11.75,14.05-12.5,17.4c-1.07,4.78-4.39,12.26-9.15,13.3
			C351.12,542.68,307.48,543.01,305.63,543.02z"/>
	</g>
	<g>
		<path class="st11" d="M243.27,542.23c0,0,37.08-8.69,66.05-8.81c28.97-0.12,48.15,1.13,48.68,4.4c0.53,3.27-1.67,3.92-7.87,4.01
			C343.93,541.93,241.61,543.86,243.27,542.23z"/>
		<path class="st12" d="M413.97,522.8c0,0-7.84-11.49-20.89-11.35c-13.05,0.14-18.83,4.15-19.94,6.15c-1.11,2-1.09,2.51,5.55,1.23
			C385.33,517.55,400.93,512.45,413.97,522.8z"/>
		<path class="st13" d="M251.45,537.4c0,0,32.49-11.83,60.41-10.95c27.92,0.88,42.56,3.64,41.35,7.04c-1.2,3.4-28.65-0.13-43.9-0.07
			C288.38,533.5,236.57,544.65,251.45,537.4z"/>
		<path class="st12" d="M208.14,515.64c6.43,0.16,11.58,2.21,15.52,5.4c2.63,0.15,6.89,1.15,10.02,3.65c0,0-10.97-14.76-29.88-12.29
			c-15.35,2.01-23.57,14.83-23.29,16.73c0.21,1.36,2.85,0.18,6.12-2.48C190.72,519.99,197.71,515.39,208.14,515.64z"/>
	</g>
	<g>
		<defs>
			<path id="SVGID_3_" d="M159.18,542.79c0,0,7.46,5.33,24.41,4.82c16.95-0.51,51.94,0.47,51.94,0.47s112.28-0.36,116.95-0.29
				c4.67,0.07,10.64,0.5,11.08,1.27c0.44,0.77,2.4-0.99,2.99-1.07c0.59-0.08,44.95-4.9,49.67-4.51c4.72,0.39,9.47-1.42,10.16-10.92
				c0.69-9.5,1.84-12.55,0.19-14.94c-1.65-2.39-2.89-4-2.94-5.71c-0.05-1.7,0.14-15.16-1.38-17.97c-1.53-2.81-3.29-2.34-3.29-2.34
				s-21.97-13.66-22.76-17.79c0,0,5.13-1.56,6.76-3.51c1.63-1.95,2.89-2.2,0.81-2.84c-2.08-0.64-10.08-1.06-13.03-1.08
				c-2.95-0.02-3.42-1.68-7.28-2.1c-3.86-0.42-54.86-5.04-72.15-3.34c-17.28,1.71-26.67,2.8-32.99,4.88
				c-6.32,2.08-44.23,22.34-48.14,23.11c-3.91,0.77-12.3,0.84-12.3,0.84s-39.04,10.79-45.06,14.2c-6.02,3.41-6.02,2.15-6.79,3.5
				c-0.78,1.35-2.66,7.38-3.76,8.02c-1.11,0.63-3.32,0.52-3.87,2.84c-0.55,2.32-2.1,7.07-1.33,10.28c0.77,3.21,4.31,7.41,3.87,9.51
				C160.47,540.21,157.77,541.38,159.18,542.79z"/>
		</defs>
		<clipPath id="SVGID_4_">
			<use xlink:href="#SVGID_3_"  style="overflow:visible;"/>
		</clipPath>
		<g class="st14">
			<path class="st15" d="M476.62,494.82c-96.02-2.54-216.54,5.54-359,30.54c-5.23,0.92-5.42-2.17-0.33-6.91v0
				c5.08-4.73,13.15-9.3,17.84-10.1c130.05-22.35,237.88-28.89,321.12-25.96c2.99,0.11,10.17,3,16.05,6.42l0,0
				C478.17,492.21,480.16,494.91,476.62,494.82z"/>
		</g>
		<g class="st14">
			<path class="st15" d="M484.67,497.95c-96.02-2.54-216.54,5.54-359,30.54c-5.23,0.92-5.42-2.17-0.33-6.91l0,0
				c5.08-4.74,13.15-9.3,17.83-10.1c130.05-22.35,237.88-28.89,321.12-25.96c2.99,0.11,10.17,3,16.06,6.42l0,0
				C486.23,495.34,488.22,498.04,484.67,497.95z"/>
		</g>
		<g class="st14">
			<path class="st11" d="M536.5,560.65c-153.98,10.38-308.49,8.64-462.11-5.19c43.47-6.08,86.95-12.15,130.42-18.23
				c66.87,4.5,133.97,3.74,200.69-2.28C449.16,543.52,492.83,552.09,536.5,560.65z"/>
		</g>
	</g>
	<g>
		<path class="st16" d="M227.47,506.4c0,0.59-1.34,1.07-2.98,1.07c-1.65,0-2.99-0.48-2.99-1.07c0-0.59,1.34-1.07,2.99-1.07
			C226.13,505.33,227.47,505.81,227.47,506.4z"/>
		<path class="st17" d="M159.81,534.47c0,0,3.1-0.61,3.76,0.25s-2.26,3.56-2.62,3.18C160.58,537.51,159.15,534.57,159.81,534.47z"/>
		<g>
			<path class="st18" d="M422.82,495.88c0,0-2.63-2-6.97-1.94c-4.34,0.06-9.73-3.69-11.39-3.25c-1.66,0.44-1.22,2.2,1.99,4.89
				c3.21,2.69,9.62,8.88,13.27,9.93c3.65,1.05,3.92,0.33,3.92,0.33S424,496.57,422.82,495.88z"/>
			<path class="st17" d="M422.76,506.15c-0.59,0-1.54-0.13-3.07-0.57c-2.93-0.84-7.61-4.96-11.02-7.97
				c-0.84-0.74-1.63-1.44-2.27-1.98c-2.1-1.76-3.14-3.24-2.94-4.17c0.09-0.41,0.43-0.71,0.98-0.86c0.75-0.2,2.17,0.4,3.97,1.16
				c2.2,0.93,4.94,2.09,7.34,2.09c0.03,0,0.07,0,0.1,0c0.06,0,0.13,0,0.19,0c4.13,0,6.71,1.87,6.83,1.96
				c1.21,0.72,0.86,9.64,0.85,10.02l0,0.03C423.69,505.91,423.56,506.15,422.76,506.15z M404.77,490.73c-0.11,0-0.2,0.01-0.29,0.03
				c-0.49,0.13-0.78,0.38-0.86,0.73c-0.19,0.87,0.83,2.29,2.88,4.01c0.65,0.54,1.44,1.24,2.28,1.98c3.4,3,8.06,7.1,10.96,7.93
				c3.22,0.93,3.75,0.46,3.81,0.39c0.1-2.58,0.16-9.31-0.77-9.85l-0.01-0.01c-0.03-0.02-2.59-1.93-6.73-1.93c-0.06,0-0.12,0-0.19,0
				c-0.04,0-0.07,0-0.11,0c-2.44,0-5.19-1.16-7.4-2.1C406.85,491.29,405.54,490.73,404.77,490.73z"/>
		</g>
	</g>
	<g>
		<path class="st19" d="M252.2,493.19c0,0-4.89,3.21-5.76,5.3c-0.87,2.09-0.53,4.54,1.95,4.61c2.47,0.07,5.73-6.19,5.73-6.19
			L252.2,493.19z"/>
		<g>
			<defs>
				<path id="SVGID_5_" d="M249.68,493.06c-1.08,1.75,0.28,4.53,3.07,5.3c3.32,0.92,11.37,0.01,11.37,0.01s-1.26-7.39-1.31-8.62
					C262.76,488.42,251.79,489.64,249.68,493.06z"/>
			</defs>
			<use xlink:href="#SVGID_5_"  style="overflow:visible;fill:#2C3E50;"/>
			<clipPath id="SVGID_6_">
				<use xlink:href="#SVGID_5_"  style="overflow:visible;"/>
			</clipPath>
			<path class="st20" d="M276.62,490.87c0,0-14.26,1.1-19,1.62c-4.65,0.5-18.62,3.75-18.62,3.75l-0.72-5.19L276,486.1L276.62,490.87
				z"/>
		</g>
	</g>
	<g>
		<path class="st21" d="M229.78,548.64c1.67-0.03,1.56-0.67,3.23-0.7c0.22,0,0.79-2.17,0.82-2.38c0.13-1.04,0.2-2.09,0.2-3.16
			c0-14.36-11.64-26-26-26c-14.36,0-26,11.64-26,26c0,1.33,0.7,3.45,1.02,4.89c0.05,0.25,0.29,0.32,0.55,0.32
			C191.07,547.54,214.74,548.94,229.78,548.64z"/>
		<path d="M185.3,542.33c0-12.53,10.16-22.69,22.69-22.69c12.53,0,22.69,10.16,22.69,22.69c0,12.53-10.16,22.69-22.69,22.69
			C195.46,565.01,185.3,554.85,185.3,542.33z"/>
		<path class="st22" d="M220.66,529.65c-6.99-6.99-18.36-6.99-25.35,0c-6.99,6.99-6.99,18.36,0,25.35c6.99,6.99,18.36,6.99,25.35,0
			C227.65,548.01,227.65,536.64,220.66,529.65z M219.42,553.76c-1.04,1.04-2.18,1.9-3.4,2.59l-2.04-1.1l-2.54-9.47l9.47,2.54
			l1.1,2.04C221.32,551.58,220.46,552.73,219.42,553.76z M209.75,558.39l1.01-1.65L208,546.44c0.7,0,1.4-0.19,2.03-0.55l2.76,10.31
			l1.71,0.92C212.98,557.79,211.37,558.22,209.75,558.39z M196.55,553.76c-0.59-0.59-1.13-1.22-1.61-1.88l1.95,0.06l7.55-7.55
			c0.17,0.3,0.39,0.58,0.64,0.84c0.26,0.26,0.54,0.47,0.84,0.64l-7.55,7.55l0.06,1.95C197.77,554.89,197.14,554.36,196.55,553.76z
			 M191.92,540.56c0.18-1.63,0.6-3.23,1.27-4.75l0.92,1.71l10.31,2.76c-0.36,0.63-0.54,1.32-0.55,2.03l-10.31-2.76L191.92,540.56z
			 M196.55,530.89c1.04-1.04,2.18-1.9,3.4-2.6l2.04,1.1l2.54,9.47l-9.47-2.54l-1.1-2.04C194.65,533.07,195.51,531.93,196.55,530.89z
			 M206.22,526.26l-1.02,1.65l2.76,10.31c-0.7,0-1.4,0.19-2.03,0.55l-2.76-10.31l-1.71-0.92
			C202.99,526.86,204.6,526.44,206.22,526.26z M219.42,530.89c0.59,0.59,1.13,1.22,1.61,1.88l-1.95-0.06l-7.55,7.55
			c-0.17-0.3-0.39-0.58-0.64-0.84c-0.26-0.26-0.54-0.47-0.84-0.64l7.55-7.55l-0.06-1.95C218.2,529.76,218.83,530.3,219.42,530.89z
			 M224.05,544.09c-0.18,1.63-0.6,3.23-1.27,4.75l-0.92-1.71l-10.31-2.76c0.36-0.63,0.54-1.33,0.54-2.03l10.31,2.76L224.05,544.09z
			 M224.15,542.38l-1.96,1.21l-9.47-2.54l6.93-6.93l2.32,0.07C223.43,536.72,224.16,539.55,224.15,542.38z M216.12,528.34l0.07,2.32
			l-6.93,6.93l-2.54-9.47l1.21-1.96C210.76,526.15,213.59,526.88,216.12,528.34z M191.82,542.27l1.96-1.21l9.47,2.54l-6.93,6.93
			l-2.32-0.07C192.54,547.94,191.81,545.1,191.82,542.27z M199.85,556.31l-0.07-2.32l6.93-6.93l2.54,9.47l-1.21,1.96
			C205.21,558.5,202.37,557.77,199.85,556.31z"/>
	</g>
	<g>
		<path class="st21" d="M366.37,548.06c4.81-0.68,9.01-0.33,13.83-0.98c8.47-1.13,16.96-2.15,25.48-2.85
			c4.24-0.35,6.95-0.82,10.84-0.74c1.92-15.41-10.39-25.9-24.89-25.9c-14.79,0-26.78,11.99-26.78,26.77c0,1.63-1.25,3.33-0.97,4.88
			C364.04,549.23,366.22,548.09,366.37,548.06z"/>
		<path d="M368.95,544.37c0-12.53,10.16-22.69,22.69-22.69s22.69,10.16,22.69,22.69c0,12.53-10.16,22.69-22.69,22.69
			S368.95,556.9,368.95,544.37z"/>
		<path class="st22" d="M404.31,531.7c-6.99-6.99-18.36-6.99-25.35,0c-6.99,6.99-6.99,18.36,0,25.35c6.99,6.99,18.36,6.99,25.35,0
			C411.3,550.06,411.3,538.68,404.31,531.7z M403.07,555.81c-1.04,1.04-2.18,1.9-3.4,2.59l-2.04-1.1l-2.54-9.47l9.47,2.54l1.1,2.04
			C404.97,553.63,404.11,554.77,403.07,555.81z M393.4,560.44l1.02-1.65l-2.76-10.31c0.7,0,1.4-0.19,2.03-0.55l2.76,10.31l1.71,0.92
			C396.63,559.84,395.02,560.26,393.4,560.44z M380.2,555.81c-0.59-0.59-1.13-1.22-1.61-1.88l1.95,0.06l7.55-7.55
			c0.17,0.3,0.39,0.58,0.64,0.84c0.26,0.26,0.54,0.47,0.84,0.64l-7.55,7.55l0.06,1.95C381.42,556.94,380.79,556.4,380.2,555.81z
			 M375.57,542.61c0.18-1.63,0.6-3.23,1.27-4.75l0.92,1.71l10.31,2.76c-0.36,0.63-0.54,1.33-0.55,2.03l-10.31-2.76L375.57,542.61z
			 M380.2,532.93c1.04-1.04,2.18-1.9,3.4-2.59l2.04,1.1l2.54,9.47l-9.47-2.54l-1.1-2.04C378.3,535.11,379.16,533.97,380.2,532.93z
			 M389.87,528.3l-1.02,1.65l2.76,10.31c-0.7,0-1.4,0.19-2.03,0.55l-2.76-10.31l-1.71-0.92C386.64,528.9,388.25,528.48,389.87,528.3
			z M403.07,532.93c0.59,0.59,1.13,1.22,1.61,1.88l-1.95-0.06l-7.55,7.55c-0.17-0.3-0.39-0.58-0.64-0.84
			c-0.26-0.26-0.54-0.47-0.84-0.64l7.55-7.55l-0.06-1.95C401.85,531.8,402.48,532.34,403.07,532.93z M407.7,546.13
			c-0.18,1.63-0.6,3.23-1.27,4.75l-0.92-1.71l-10.31-2.76c0.36-0.63,0.54-1.33,0.54-2.03l10.31,2.76L407.7,546.13z M407.8,544.43
			l-1.96,1.21l-9.47-2.54l6.93-6.93l2.32,0.07C407.08,538.76,407.81,541.59,407.8,544.43z M399.77,530.39l0.07,2.32l-6.93,6.93
			l-2.54-9.47l1.21-1.96C394.41,528.19,397.25,528.92,399.77,530.39z M375.47,544.31l1.96-1.21l9.47,2.54l-6.93,6.93l-2.32-0.07
			C376.19,549.98,375.46,547.15,375.47,544.31z M383.5,558.35l-0.07-2.32l6.93-6.93l2.54,9.47l-1.21,1.97
			C388.86,560.55,386.02,559.82,383.5,558.35z"/>
	</g>
	<g>
		<defs>
			<path id="SVGID_7_" d="M220.66,529.65c-6.99-6.99-18.36-6.99-25.35,0c-6.99,6.99-6.99,18.36,0,25.35
				c6.99,6.99,18.36,6.99,25.35,0C227.65,548.01,227.65,536.64,220.66,529.65z M219.42,553.76c-1.04,1.04-2.18,1.9-3.4,2.59
				l-2.04-1.1l-2.54-9.47l9.47,2.54l1.1,2.04C221.32,551.58,220.46,552.73,219.42,553.76z M209.75,558.39l1.01-1.65L208,546.44
				c0.7,0,1.4-0.19,2.03-0.55l2.76,10.31l1.71,0.92C212.98,557.79,211.37,558.22,209.75,558.39z M196.55,553.76
				c-0.59-0.59-1.13-1.22-1.61-1.88l1.95,0.06l7.55-7.55c0.17,0.3,0.39,0.58,0.64,0.84c0.26,0.26,0.54,0.47,0.84,0.64l-7.55,7.55
				l0.06,1.95C197.77,554.89,197.14,554.36,196.55,553.76z M191.92,540.56c0.18-1.63,0.6-3.23,1.27-4.75l0.92,1.71l10.31,2.76
				c-0.36,0.63-0.54,1.32-0.55,2.03l-10.31-2.76L191.92,540.56z M196.55,530.89c1.04-1.04,2.18-1.9,3.4-2.6l2.04,1.1l2.54,9.47
				l-9.47-2.54l-1.1-2.04C194.65,533.07,195.51,531.93,196.55,530.89z M206.22,526.26l-1.02,1.65l2.76,10.31
				c-0.7,0-1.4,0.19-2.03,0.55l-2.76-10.31l-1.71-0.92C202.99,526.86,204.6,526.44,206.22,526.26z M219.42,530.89
				c0.59,0.59,1.13,1.22,1.61,1.88l-1.95-0.06l-7.55,7.55c-0.17-0.3-0.39-0.58-0.64-0.84c-0.26-0.26-0.54-0.47-0.84-0.64l7.55-7.55
				l-0.06-1.95C218.2,529.76,218.83,530.3,219.42,530.89z M224.05,544.09c-0.18,1.63-0.6,3.23-1.27,4.75l-0.92-1.71l-10.31-2.76
				c0.36-0.63,0.54-1.33,0.54-2.03l10.31,2.76L224.05,544.09z M224.15,542.38l-1.96,1.21l-9.47-2.54l6.93-6.93l2.32,0.07
				C223.43,536.72,224.16,539.55,224.15,542.38z M216.12,528.34l0.07,2.32l-6.93,6.93l-2.54-9.47l1.21-1.96
				C210.76,526.15,213.59,526.88,216.12,528.34z M191.82,542.27l1.96-1.21l9.47,2.54l-6.93,6.93l-2.32-0.07
				C192.54,547.94,191.81,545.1,191.82,542.27z M199.85,556.31l-0.07-2.32l6.93-6.93l2.54,9.47l-1.21,1.96
				C205.21,558.5,202.37,557.77,199.85,556.31z"/>
		</defs>
		<clipPath id="SVGID_8_">
			<use xlink:href="#SVGID_7_"  style="overflow:visible;"/>
		</clipPath>
		<g class="st23">
			<path class="st11" d="M535.17,559.14c-153.38,11.37-307.4,10.67-460.64-2.09c43.18-2.45,86.37-4.89,129.55-7.34
				c67.03,4.97,134.34,4.66,201.3-0.92C448.65,552.24,491.91,555.69,535.17,559.14z"/>
		</g>
	</g>
	<g>
		<defs>
			<path id="SVGID_9_" d="M404.31,531.7c-6.99-6.99-18.36-6.99-25.35,0c-6.99,6.99-6.99,18.36,0,25.35c6.99,6.99,18.36,6.99,25.35,0
				C411.3,550.06,411.3,538.68,404.31,531.7z M403.07,555.81c-1.04,1.04-2.18,1.9-3.4,2.59l-2.04-1.1l-2.54-9.47l9.47,2.54l1.1,2.04
				C404.97,553.63,404.11,554.77,403.07,555.81z M393.4,560.44l1.02-1.65l-2.76-10.31c0.7,0,1.4-0.19,2.03-0.55l2.76,10.31
				l1.71,0.92C396.63,559.84,395.02,560.26,393.4,560.44z M380.2,555.81c-0.59-0.59-1.13-1.22-1.61-1.88l1.95,0.06l7.55-7.55
				c0.17,0.3,0.39,0.58,0.64,0.84c0.26,0.26,0.54,0.47,0.84,0.64l-7.55,7.55l0.06,1.95C381.42,556.94,380.79,556.4,380.2,555.81z
				 M375.57,542.61c0.18-1.63,0.6-3.23,1.27-4.75l0.92,1.71l10.31,2.76c-0.36,0.63-0.54,1.33-0.55,2.03l-10.31-2.76L375.57,542.61z
				 M380.2,532.93c1.04-1.04,2.18-1.9,3.4-2.59l2.04,1.1l2.54,9.47l-9.47-2.54l-1.1-2.04C378.3,535.11,379.16,533.97,380.2,532.93z
				 M389.87,528.3l-1.02,1.65l2.76,10.31c-0.7,0-1.4,0.19-2.03,0.55l-2.76-10.31l-1.71-0.92
				C386.64,528.9,388.25,528.48,389.87,528.3z M403.07,532.93c0.59,0.59,1.13,1.22,1.61,1.88l-1.95-0.06l-7.55,7.55
				c-0.17-0.3-0.39-0.58-0.64-0.84c-0.26-0.26-0.54-0.47-0.84-0.64l7.55-7.55l-0.06-1.95C401.85,531.8,402.48,532.34,403.07,532.93z
				 M407.7,546.13c-0.18,1.63-0.6,3.23-1.27,4.75l-0.92-1.71l-10.31-2.76c0.36-0.63,0.54-1.33,0.54-2.03l10.31,2.76L407.7,546.13z
				 M407.8,544.43l-1.96,1.21l-9.47-2.54l6.93-6.93l2.32,0.07C407.08,538.76,407.81,541.59,407.8,544.43z M399.77,530.39l0.07,2.32
				l-6.93,6.93l-2.54-9.47l1.21-1.96C394.41,528.19,397.25,528.92,399.77,530.39z M375.47,544.31l1.96-1.21l9.47,2.54l-6.93,6.93
				l-2.32-0.07C376.19,549.98,375.46,547.15,375.47,544.31z M383.5,558.35l-0.07-2.32l6.93-6.93l2.54,9.47l-1.21,1.97
				C388.86,560.55,386.02,559.82,383.5,558.35z"/>
		</defs>
		<clipPath id="SVGID_10_">
			<use xlink:href="#SVGID_9_"  style="overflow:visible;"/>
		</clipPath>
		<g class="st24">
			<path class="st11" d="M536.53,567.57c-154,10.36-308.54,8.6-462.17-5.26c43.48-6.16,86.96-12.31,130.45-18.47
				c66.87,4.49,133.98,3.72,200.69-2.31C449.17,550.21,492.85,558.89,536.53,567.57z"/>
		</g>
	</g>
	<g>
		<path class="st25" d="M169.18,508.15c0,0-4.45,4.31-4.92,6.52c-0.47,2.21-0.19,4.64,2.68,3.15c2.87-1.49,15.92-6.08,18.9-6.74
			c2.99-0.66,7.04-5.38,9.93-6.17c2.89-0.79,4.77-4.11,1.29-3.78c-3.48,0.33-13.76,2.41-17.52,3.78
			C175.79,506.28,171.75,506.83,169.18,508.15z"/>
		<path class="st16" d="M197.07,501.14c-1.28,0.12-3.47,0.48-5.93,0.95c-0.46,0.86-0.84,1.8-1.12,2.8
			c-0.39,1.42-0.54,2.83-0.49,4.16c2.17-1.61,4.44-3.64,6.24-4.14C198.67,504.12,200.55,500.8,197.07,501.14z"/>
	</g>
	<g>
		<path d="M307.07,508.04h-10.17c-0.97,0-1.77-0.79-1.77-1.77l0,0c0-0.97,0.79-1.77,1.77-1.77h10.17c0.97,0,1.77,0.8,1.77,1.77l0,0
			C308.83,507.25,308.04,508.04,307.07,508.04z"/>
		<path d="M384.09,498l-0.59,0.15c-0.66,0.17-1.34-0.24-1.51-0.9l-1.5-5.89c-0.17-0.66,0.24-1.34,0.9-1.51l0.59-0.15
			c0.66-0.17,1.34,0.23,1.51,0.9l1.5,5.89C385.15,497.15,384.75,497.83,384.09,498z"/>
	</g>
	<path class="st26" d="M165.84,507.19c0,0,1.4-1.07,1.91,0.04c0.4,0.88-5.1,7.65-5.28,8.08c-0.19,0.42-2.13,1.4-1.47,0.64
		C161.65,515.19,165.98,508.7,165.84,507.19z"/>
</g>
</svg>
