<!-- Generator: Adobe Illustrator 23.0.1, SVG Export Plug-In  -->
<svg version="1.1" xmlns="http://www.w3.org/2000/svg" xmlns:xlink="http://www.w3.org/1999/xlink" x="0px" y="0px"
	 width="909.74px" height="205.34px" viewBox="0 0 909.74 205.34" style="enable-background:new 0 0 909.74 205.34;"
	 xml:space="preserve">
<style type="text/css">
	.st0{fill:#4D4D4F;}
</style>
<defs>
</defs>
<g>
	<g>
		<path class="st0" d="M794.38,160.67c2.46,0,3.56-0.26,4.16-0.6c0.51-0.34,0.85-1.02,0.85-1.78c0-3.06-1.95-5.53-5.6-5.53
			c-5.69,0-8.32,5.53-8.32,7.3c0,0.34,0.17,0.6,1.19,0.6H794.38z M786.57,164.06c-1.62,0-1.79,0.09-1.79,1.11
			c0,7.64,5.27,13.76,12.82,13.76c3.4,0,6.2-1.1,8.16-4.25c0.85-0.25,1.78,0.6,1.87,1.36c-2.89,6.8-9.17,9.35-14.35,9.35
			c-9.85,0-16.39-7.31-16.39-16.99c0-9.6,6.54-18.86,17.92-18.86c6.29,0,12.74,4.08,12.74,11.47c0,0.76-0.09,1.27-0.42,1.95
			c-0.51,0.76-2.46,1.1-5.86,1.1H786.57z"/>
		<path class="st0" d="M828.27,176.63c-0.08,2.04-1.02,4.08-4.07,4.08c-3.23,0-4.76-2.71-4.76-4.93c0-3.65,2.21-4.84,4.58-5.69
			c1.53-0.59,3.06-1.01,3.74-1.01c0.43,0,0.68,0.51,0.68,1.44L828.27,176.63z M842.5,180.89c-0.13-0.1-0.26-0.23-0.48-0.21
			c-0.22,0.01-0.75,0.2-1.18,0.2c-3.07,0-4.33-2.55-4.08-7.47l0.6-13.25c0.34-7.47-3.84-10.62-10.53-10.62
			c-4.34,0-10.45,2.88-13.08,5.35c-2.8,2.63-3.31,4.41-3.31,5.43c0,0.76,0.51,1.36,1.62,1.36c1.87,0,4.24-0.76,5.43-1.53
			c0.94-0.6,1.44-1.44,1.62-3.06c0.34-2.46,2.12-3.74,4.5-3.74c4.16,0,5.35,3.74,5.18,8.06l-0.09,2.21c0,0.85-0.25,1.62-1.95,2.21
			c-3.14,1.19-6.37,2.38-9.35,3.4c-5.86,2.04-7.05,4.84-7.05,7.9c0,4.25,2.88,8.24,8.66,8.24c3.06,0,5.61-1.19,7.22-2.2
			c1.27-0.76,1.87-1.19,2.29-1.19c0.42,0,0.76,0.43,1.36,1.02c1.62,1.78,3.99,2.38,6.12,2.38c1.82,0,5.04-0.55,6.32-1.82
			C843.23,182.62,843.05,181.32,842.5,180.89"/>
		<path class="st0" d="M845.07,182.67c-0.85-1.62-1.36-5.95-1.19-9.6c0.51-0.68,1.79-0.76,2.38-0.17c1.53,4.75,4.68,9.25,9.17,9.25
			c2.63,0,4.75-1.78,4.75-4.75c0-3.14-2.8-5.18-5.78-6.63c-4.41-2.12-9-5.26-9-10.7c-0.08-6.62,5.61-10.53,12.66-10.53
			c3.48,0,6.71,1.02,7.9,1.7c0.85,1.78,1.27,4.42,1.27,8.24c-0.25,0.68-1.7,0.93-2.29,0.43c-1.27-3.91-3.99-7.13-7.3-7.13
			c-2.72,0-4.76,1.95-4.76,4.42c0,2.46,2.46,4.25,5.69,5.78c4.59,2.2,9.43,5.09,9.43,11.8c0,7.38-6.54,10.62-13.25,10.62
			C851.27,185.38,847.78,184.7,845.07,182.67"/>
		<path class="st0" d="M909.07,150.47c-2.29,0.17-4.59,0.25-6.8,0.25c-1.87,0-5.01-0.08-8.07-0.25c-0.68,0.43-0.76,1.78-0.17,2.46
			l2.89,0.59c1.29,0.26,1.62,0.69,1.62,1.45c0,0.34-1.03,3.65-3.04,8.24l-2.56,5.69c-1.1,2.47-2.38,5.18-2.72,5.27
			c-0.25-0.09-1.26-2.12-2.87-6.45l-3.75-9.77c-0.3-0.76-0.52-1.39-0.68-1.9c-0.1-0.17-0.19-0.37-0.26-0.56
			c-1.32-3.44-3.82-4.66-5.45-4.76c-1.33-0.07-5.69-0.08-7.36-0.17c-1.67-0.09-2.16,2.31-0.03,2.78c3.04,0.68,3.65,2.02,5.65,7.16
			l6.88,17.84c1.26,3.22,1.42,5.01,1.42,6.29c0,3.56-2.36,8.06-4.14,10.61c-0.86,1.19-2.39,1.61-3.58,1.7l-1.85,0.09
			c-2.4,0.08-4.34,1.01-4.34,3.82c0,2.46,1.45,4.5,4.66,4.5c2.82,0,5.01-1.36,6.46-4.59c3.56-7.82,11.12-22.93,14.01-28.71
			l4.33-8.67c2.63-5.27,4.25-7.64,5.18-8.57c1.19-1.19,3.82-1.62,4.84-1.87C909.92,152.34,909.92,150.72,909.07,150.47"/>
		<path class="st0" d="M753.79,179.71c-6.5,0-11.76-5.84-11.76-13.05s5.26-13.04,11.76-13.04c6.49,0,11.76,5.84,11.76,13.04
			S760.27,179.71,753.79,179.71 M753.79,148.31c-9.72,0-17.6,8.21-17.6,18.35c0,10.14,7.88,18.35,17.6,18.35
			c9.72,0,17.6-8.21,17.6-18.35C771.39,156.53,763.51,148.31,753.79,148.31"/>
		<path class="st0" d="M714.92,179.71c-6.5,0-11.76-5.84-11.76-13.05s5.26-13.04,11.76-13.04c6.49,0,11.76,5.84,11.76,13.04
			S721.41,179.71,714.92,179.71 M714.92,148.31c-9.73,0-17.6,8.21-17.6,18.35c0,10.14,7.88,18.35,17.6,18.35
			c4.52,0,8.64-1.8,11.76-4.73v2.09c0,7.2-5.28,13.04-11.76,13.04c-4.04,0-7.61-2.26-9.73-5.71h-7.19
			c1.77,7.13,8.22,11.55,16.5,11.55c10.75,0,18.02-7.61,18.02-18.82v-15.77C732.52,156.53,724.64,148.31,714.92,148.31"/>
	</g>
	<g>
		<g>
			<path class="st0" d="M38.42,81.36c5.41,0,7.83-0.57,9.13-1.31c1.12-0.74,1.86-2.23,1.86-3.91c0-6.72-4.28-12.13-12.3-12.13
				c-12.49,0-18.27,12.13-18.27,16.03c0,0.74,0.38,1.31,2.61,1.31H38.42z M21.26,88.82c-3.54,0-3.92,0.19-3.92,2.43
				c0,16.78,11.56,30.21,28.16,30.21c7.46,0,13.61-2.42,17.9-9.33c1.87-0.55,3.92,1.31,4.1,2.99
				c-6.34,14.92-20.13,20.52-31.52,20.52C14.36,135.63,0,119.59,0,98.33c0-21.07,14.36-41.41,39.34-41.41
				c13.8,0,27.98,8.96,27.98,25.19c0,1.67-0.19,2.79-0.93,4.29c-1.12,1.68-5.41,2.42-12.87,2.42H21.26z"/>
			<path class="st0" d="M112.83,116.41c-0.18,4.47-2.23,8.95-8.95,8.95c-7.08,0-10.45-5.96-10.45-10.81
				c0-8.02,4.85-10.63,10.07-12.5c3.36-1.3,6.72-2.23,8.2-2.23c0.94,0,1.5,1.11,1.5,3.16L112.83,116.41z M144.07,125.77
				c-0.29-0.22-0.57-0.5-1.06-0.47c-0.48,0.03-1.65,0.43-2.58,0.43c-6.74,0-9.51-5.59-8.95-16.4l1.3-29.09
				c0.75-16.41-8.42-23.31-23.12-23.31c-9.52,0-22.94,6.34-28.72,11.75c-6.16,5.78-7.28,9.69-7.28,11.93c0,1.68,1.12,2.99,3.54,2.99
				c4.11,0,9.32-1.68,11.93-3.36c2.06-1.32,3.17-3.17,3.55-6.72c0.74-5.41,4.65-8.2,9.89-8.2c9.13,0,11.74,8.2,11.37,17.71
				l-0.19,4.85c0,1.87-0.56,3.54-4.29,4.85c-6.9,2.61-13.99,5.22-20.52,7.46c-12.86,4.48-15.48,10.64-15.48,17.34
				c0,9.33,6.34,18.09,19.02,18.09c6.71,0,12.31-2.61,15.85-4.85c2.79-1.68,4.1-2.62,5.03-2.62c0.93,0,1.68,0.94,2.98,2.24
				c3.54,3.91,8.77,5.22,13.43,5.22c3.98,0,11.07-1.21,13.86-4.01C145.69,129.56,145.28,126.7,144.07,125.77"/>
			<path class="st0" d="M149.71,129.66c-1.86-3.54-2.98-13.06-2.61-21.07c1.11-1.49,3.92-1.68,5.22-0.38
				c3.35,10.44,10.26,20.33,20.14,20.33c5.78,0,10.44-3.92,10.44-10.44c0-6.9-6.15-11.38-12.68-14.55
				c-9.69-4.67-19.77-11.55-19.77-23.5c-0.18-14.54,12.31-23.13,27.79-23.13c7.64,0,14.73,2.25,17.34,3.74
				c1.87,3.92,2.8,9.69,2.8,18.09c-0.56,1.49-3.73,2.04-5.03,0.93c-2.8-8.58-8.77-15.67-16.03-15.67c-5.97,0-10.45,4.29-10.45,9.7
				s5.41,9.33,12.49,12.69c10.07,4.85,20.7,11.18,20.7,25.92c0,16.22-14.36,23.31-29.09,23.31
				C163.33,135.63,155.67,134.14,149.71,129.66"/>
			<path class="st0" d="M290.24,58.98c-5.03,0.36-10.08,0.54-14.92,0.54c-4.1,0-11-0.18-17.72-0.54c-1.49,0.93-1.67,3.91-0.38,5.4
				l6.34,1.3c2.82,0.57,3.55,1.51,3.55,3.18c0,0.74-2.25,8.01-6.68,18.09l-5.63,12.49c-2.4,5.41-5.23,11.37-5.97,11.56
				c-0.56-0.18-2.77-4.65-6.3-14.17l-8.24-21.44c-0.65-1.68-1.14-3.05-1.49-4.17c-0.23-0.36-0.41-0.81-0.57-1.23
				c-2.89-7.56-8.38-10.24-11.97-10.46c-2.91-0.15-12.49-0.18-16.17-0.38c-3.67-0.2-4.74,5.07-0.07,6.09
				c6.67,1.51,8.01,4.43,12.4,15.73l15.1,39.18c2.77,7.08,3.13,11,3.13,13.8c0,7.83-5.18,17.72-9.1,23.3
				c-1.9,2.61-5.25,3.54-7.86,3.74l-4.07,0.19c-5.26,0.18-9.52,2.23-9.52,8.39c0,5.4,3.18,9.88,10.23,9.88
				c6.18,0,11.01-2.98,14.19-10.08c7.8-17.16,24.42-50.34,30.75-63.02l9.51-19.03c5.79-11.57,9.33-16.79,11.37-18.83
				c2.62-2.61,8.4-3.55,10.64-4.11C292.11,63.07,292.11,59.52,290.24,58.98"/>
		</g>
		<g>
			<path class="st0" d="M545.09,116.41c-0.18,4.47-2.23,8.95-8.95,8.95c-7.08,0-10.45-5.96-10.45-10.81
				c0-8.02,4.85-10.63,10.07-12.5c3.36-1.3,6.72-2.23,8.2-2.23c0.94,0,1.5,1.11,1.5,3.16L545.09,116.41z M576.32,125.77
				c-0.29-0.22-0.57-0.5-1.06-0.47c-0.48,0.03-1.65,0.43-2.58,0.43c-6.74,0-9.51-5.59-8.95-16.4l1.3-29.09
				c0.75-16.41-8.42-23.31-23.12-23.31c-9.52,0-22.94,6.34-28.72,11.75c-6.16,5.78-7.28,9.69-7.28,11.93c0,1.68,1.12,2.99,3.54,2.99
				c4.11,0,9.32-1.68,11.93-3.36c2.06-1.32,3.17-3.17,3.55-6.72c0.74-5.41,4.65-8.2,9.89-8.2c9.13,0,11.74,8.2,11.37,17.71
				l-0.19,4.85c0,1.87-0.56,3.54-4.29,4.85c-6.9,2.61-13.99,5.22-20.52,7.46c-12.86,4.48-15.48,10.64-15.48,17.34
				c0,9.33,6.34,18.09,19.02,18.09c6.71,0,12.31-2.61,15.85-4.85c2.79-1.68,4.1-2.62,5.03-2.62s1.68,0.94,2.98,2.24
				c3.54,3.91,8.77,5.22,13.43,5.22c3.98,0,11.07-1.21,13.86-4.01C577.94,129.56,577.54,126.7,576.32,125.77"/>
			<path class="st0" d="M831.46,116.41c-0.18,4.47-2.23,8.95-8.95,8.95c-7.08,0-10.45-5.96-10.45-10.81
				c0-8.02,4.85-10.63,10.07-12.5c3.36-1.3,6.72-2.23,8.2-2.23c0.94,0,1.5,1.11,1.5,3.16L831.46,116.41z M862.7,125.77
				c-0.29-0.22-0.57-0.5-1.06-0.47c-0.48,0.03-1.65,0.43-2.58,0.43c-6.74,0-9.51-5.59-8.95-16.4l1.3-29.09
				c0.75-16.41-8.42-23.31-23.12-23.31c-9.52,0-22.94,6.34-28.72,11.75c-6.16,5.78-7.28,9.69-7.28,11.93c0,1.68,1.12,2.99,3.54,2.99
				c4.11,0,9.32-1.68,11.93-3.36c2.06-1.32,3.17-3.17,3.55-6.72c0.74-5.41,4.65-8.2,9.89-8.2c9.13,0,11.74,8.2,11.37,17.71
				l-0.19,4.85c0,1.87-0.56,3.54-4.29,4.85c-6.9,2.61-13.99,5.22-20.52,7.46c-12.86,4.48-15.48,10.64-15.48,17.34
				c0,9.33,6.34,18.09,19.02,18.09c6.71,0,12.31-2.61,15.85-4.85c2.79-1.68,4.1-2.62,5.03-2.62s1.68,0.94,2.98,2.24
				c3.54,3.91,8.77,5.22,13.43,5.22c3.98,0,11.07-1.21,13.86-4.01C864.32,129.56,863.91,126.7,862.7,125.77"/>
			<g>
				<path class="st0" d="M332.67,68.3c-3.89,0-3.89,0.37-3.89,5.75v36.55c0,13.73,0.74,15.77,7.23,16.51l7.24,0.74
					c1.3,1.3,1.11,4.64-0.37,5.38c-8.35-0.37-15.58-0.56-24.3-0.56c-6.12,0-12.43,0.19-20.04,0.56c-1.49-0.74-1.67-4.08-0.37-5.38
					l4.08-0.56c6.31-0.93,7.05-2.97,7.05-16.7V73.87c0-5.01-0.19-5.56-3.34-5.56h-6.68c-1.49-0.74-1.85-3.15-0.56-4.27l7.97-4.08
					c1.3-0.74,2.6-1.85,2.6-4.08v-3.34c0-7.98,0.74-17.07,3.89-26.53c4.83-14.66,17.26-25.97,34.69-25.97
					c12.81,0,21.15,5.75,21.15,13.54c0,5.19-4.64,8.9-9.09,8.9c-2.78,0-4.27-1.12-5.38-2.6c-5.93-8.54-10.02-12.24-14.47-12.24
					c-6.31,0-11.32,12.62-11.32,40.44v5.57c0,5.56,0.18,5.93,4.08,5.93h19.48c0.74,0.56,1.11,1.67,1.11,2.97
					c0,3.15-1.11,4.82-2.6,5.75H332.67z"/>
				<path class="st0" d="M373.67,28.79c0-6.31,4.64-11.13,11.32-11.13s11.32,4.82,11.32,11.13c0,6.31-4.63,11.13-11.32,11.13
					S373.67,35.09,373.67,28.79 M394.83,110.6c0,13.73,0.74,15.58,7.05,16.7l3.34,0.55c1.3,1.3,1.11,4.64-0.37,5.39
					c-6.86-0.37-13.17-0.56-20.04-0.56c-6.12,0-12.43,0.19-19.48,0.56c-1.49-0.75-1.67-4.08-0.37-5.39l3.34-0.55
					c6.31-1.12,7.05-2.97,7.05-16.7V83.33c0-8.35,0-10.58-4.64-13.36l-2.22-1.3c-0.56-0.74-0.56-3.34,0.18-4.27
					c9.65-2.78,18.93-6.87,24.12-10.02c1.12,0.18,2.04,0.55,2.59,1.48c-0.37,6.12-0.55,15.03-0.55,22.63V110.6z"/>
				<path class="st0" d="M439.35,110.6c0,13.73,0.74,15.96,7.05,16.89l2.78,0.36c1.3,1.3,1.11,4.64-0.37,5.39
					c-6.5-0.37-12.81-0.56-19.67-0.56c-5.94,0-12.24,0.19-20.04,0.56c-1.49-0.75-1.67-4.08-0.37-5.39l4.08-0.55
					c6.31-0.93,7.05-2.97,7.05-16.7V83.33c0-8.35,0-10.58-4.64-13.36l-2.22-1.3c-0.56-0.74-0.56-3.34,0.19-4.27
					c7.97-2.23,18.18-6.68,24.12-10.02c1.3,0,2.04,0.74,2.42,1.48c-0.37,3.52-0.37,7.05-0.37,8.54c0,1.3,0.56,1.67,1.67,1.85
					c8.72-4.83,13.92-9.28,25.42-9.28c15.03,0,22.08,10.39,22.08,24.86v28.75c0,13.73,0.74,15.96,7.05,16.7l4.27,0.55
					c1.3,1.3,1.12,4.64-0.37,5.39c-7.79-0.37-14.1-0.56-20.97-0.56c-6.12,0-12.43,0.19-18.92,0.56c-1.49-0.75-1.67-4.08-0.37-5.39
					l2.78-0.36c6.31-0.93,7.05-3.16,7.05-16.89V85c0-9.46-3.71-16.88-14.84-16.88c-5.75,0-10.39,2.97-12.24,5.75
					c-2.41,3.34-2.6,5.01-2.6,11.88V110.6z"/>
				<path class="st0" d="M612.29,110.6c0,13.73,0.74,15.96,7.05,16.89l2.78,0.36c1.3,1.3,1.12,4.64-0.37,5.39
					c-6.49-0.37-12.8-0.56-19.67-0.56c-5.93,0-12.24,0.19-20.03,0.56c-1.49-0.75-1.67-4.08-0.37-5.39l4.08-0.55
					c6.31-0.93,7.05-2.97,7.05-16.7V83.33c0-8.35,0-10.58-4.64-13.36l-2.22-1.3c-0.56-0.74-0.56-3.34,0.19-4.27
					c7.97-2.23,18.18-6.68,24.12-10.02c1.3,0,2.04,0.74,2.41,1.48c-0.37,3.52-0.37,7.05-0.37,8.54c0,1.3,0.56,1.67,1.67,1.85
					c8.72-4.83,13.92-9.28,25.42-9.28c15.03,0,22.08,10.39,22.08,24.86v28.75c0,13.73,0.74,15.96,7.05,16.7l4.27,0.55
					c1.3,1.3,1.12,4.64-0.37,5.39c-7.79-0.37-14.1-0.56-20.97-0.56c-6.12,0-12.43,0.19-18.93,0.56c-1.48-0.75-1.67-4.08-0.37-5.39
					l2.78-0.36c6.31-0.93,7.05-3.16,7.05-16.89V85c0-9.46-3.71-16.88-14.84-16.88c-5.75,0-10.39,2.97-12.24,5.75
					c-2.41,3.34-2.6,5.01-2.6,11.88V110.6z"/>
				<path class="st0" d="M736.71,59.58c2.41,2.23,3.71,5.2,3.71,9.46c0,5.93-3.15,8.72-4.64,8.72c-1.29,0-2.22-0.37-3.52-2.04
					c-4.08-5.38-9.65-11.32-16.88-11.32c-10.58,0-21.52,10.39-21.52,27.83c0,15.03,9.65,29.32,26.54,29.32
					c12.06,0,16.32-4.45,20.03-9.83c1.67-0.18,3.71,1.11,3.9,3.34c-6.68,15.02-20.96,20.22-32.65,20.22
					c-9.83,0-19.48-3.9-25.79-10.02c-6.49-6.31-10.76-15.95-10.76-26.72c0-21.71,15.77-41.56,45.64-41.56
					C726.14,56.98,731.52,57.73,736.71,59.58"/>
				<path class="st0" d="M754.47,28.79c0-6.31,4.64-11.13,11.32-11.13s11.32,4.82,11.32,11.13c0,6.31-4.63,11.13-11.32,11.13
					S754.47,35.09,754.47,28.79 M775.62,110.6c0,13.73,0.74,15.58,7.05,16.7l3.34,0.55c1.3,1.3,1.11,4.64-0.37,5.39
					c-6.86-0.37-13.17-0.56-20.04-0.56c-6.12,0-12.43,0.19-19.48,0.56c-1.49-0.75-1.67-4.08-0.37-5.39l3.34-0.55
					c6.31-1.12,7.05-2.97,7.05-16.7V83.33c0-8.35,0-10.58-4.64-13.36l-2.22-1.3c-0.56-0.74-0.56-3.34,0.18-4.27
					c9.65-2.78,18.93-6.87,24.12-10.02c1.11,0.18,2.04,0.55,2.6,1.48c-0.37,6.12-0.56,15.03-0.56,22.63V110.6z"/>
				<path class="st0" d="M878.26,31.01c0-12.43-0.19-13.54-4.82-16.51l-2.04-1.3c-1.12-0.74-1.3-3.71,0-4.27
					c7.24-2.04,16.88-5.94,24.3-8.9c1.11-0.19,2.23,0.56,2.6,1.49c-0.37,7.42-0.56,18.92-0.56,26.9v82.19
					c0,13.73,0.74,15.77,7.05,16.7l4.08,0.56c1.3,1.3,1.11,4.64-0.37,5.38c-7.61-0.37-13.91-0.56-20.78-0.56
					c-6.12,0-12.43,0.19-20.03,0.56c-1.49-0.74-1.67-4.08-0.37-5.38l3.9-0.56c6.31-0.93,7.05-2.97,7.05-16.7V31.01z"/>
			</g>
		</g>
	</g>
</g>
</svg>
